<svg xmlns="http://www.w3.org/2000/svg" xmlns:xlink="http://www.w3.org/1999/xlink" version="1.1" width="1080" height="1080" viewBox="0 0 1080 1080" xml:space="preserve">
<desc>Created with Fabric.js 3.5.0</desc>
<defs>
</defs>
<rect x="0" y="0" width="100%" height="100%" fill="rgba(255,255,102,0)"/>
<g transform="matrix(1.9176 0 0 1.9176 539.9965 539.9965)" id="452836">
<g style="" vector-effect="non-scaling-stroke">
		<g transform="matrix(1 0 0 1 89.5969 128.0008)" id="Layer_1">
<path style="stroke: none; stroke-width: 1; stroke-dasharray: none; stroke-linecap: butt; stroke-dashoffset: 0; stroke-linejoin: miter; stroke-miterlimit: 4; is-custom-font: none; font-file-url: none; fill: rgb(255,255,255); fill-rule: nonzero; opacity: 1;" transform=" translate(-345.5968, -384.0008)" d="M 455.612 369.545 c 9.199 72.482 -51.985 133.675 -124.467 124.467 c -49.399 -6.272 -89.293 -46.165 -95.565 -95.565 c -9.19 -72.474 51.994 -133.658 124.476 -124.459 C 409.455 280.26 449.34 320.145 455.612 369.545 z" stroke-linecap="round"/>
</g>
		<g transform="matrix(1 0 0 1 112.2613 125.6979)" id="Layer_1">
<path style="stroke: none; stroke-width: 1; stroke-dasharray: none; stroke-linecap: butt; stroke-dashoffset: 0; stroke-linejoin: miter; stroke-miterlimit: 4; is-custom-font: none; font-file-url: none; fill: rgb(240,240,240); fill-rule: nonzero; opacity: 1;" transform=" translate(-368.2613, -381.6979)" d="M 363.153 274.441 c -31.275 -4.873 -60.459 3.567 -83.166 20.309 c 19.115 -5.666 40.286 -6.537 62.31 -0.222 c 40.038 11.486 70.963 45.261 78.285 86.263 c 7.987 44.74 -11.11 85.658 -43.503 109.534 c 49.681 -14.729 84.932 -63.309 78.754 -118.946 C 450.389 322.398 411.844 282.027 363.153 274.441 z" stroke-linecap="round"/>
</g>
		<g transform="matrix(1 0 0 1 89.6 128)" id="Layer_1">
<path style="stroke: none; stroke-width: 1; stroke-dasharray: none; stroke-linecap: butt; stroke-dashoffset: 0; stroke-linejoin: miter; stroke-miterlimit: 4; is-custom-font: none; font-file-url: none; fill: rgb(0,0,0); fill-rule: nonzero; opacity: 1;" transform=" translate(-345.6, -384)" d="M 345.6 256 c -70.579 0 -128 57.421 -128 128 s 57.421 128 128 128 s 128 -57.421 128 -128 S 416.179 256 345.6 256 z M 234.667 384 c 0 -61.167 49.766 -110.933 110.933 -110.933 c 27.52 0 52.676 10.129 72.081 26.786 L 261.453 456.081 C 244.796 436.676 234.667 411.52 234.667 384 z M 345.6 494.933 c -27.52 0 -52.676 -10.129 -72.081 -26.786 L 429.756 311.91 c 16.649 19.413 26.778 44.57 26.778 72.09 C 456.533 445.167 406.767 494.933 345.6 494.933 z" stroke-linecap="round"/>
</g>
		<g transform="matrix(1 0 0 1 -119.467 187.7335)" id="Layer_1">
<path style="stroke: none; stroke-width: 1; stroke-dasharray: none; stroke-linecap: butt; stroke-dashoffset: 0; stroke-linejoin: miter; stroke-miterlimit: 4; is-custom-font: none; font-file-url: none; fill: rgb(0,0,0); fill-rule: nonzero; opacity: 1;" transform=" translate(-136.533, -443.7335)" d="M 226.133 469.333 H 55.467 V 409.6 c 0 -4.71 -3.823 -8.533 -8.533 -8.533 S 38.4 404.89 38.4 409.6 v 68.267 c 0 4.71 3.823 8.533 8.533 8.533 h 179.2 c 4.71 0 8.533 -3.823 8.533 -8.533 S 230.844 469.333 226.133 469.333 z" stroke-linecap="round"/>
</g>
		<g transform="matrix(1 0 0 1 -209.0455 119.467)" id="Layer_1">
<path style="stroke: none; stroke-width: 1; stroke-dasharray: none; stroke-linecap: butt; stroke-dashoffset: 0; stroke-linejoin: miter; stroke-miterlimit: 4; is-custom-font: none; font-file-url: none; fill: rgb(0,0,0); fill-rule: nonzero; opacity: 1;" transform=" translate(-46.9545, -375.467)" d="M 46.933 384 h 0.085 c 4.71 0 8.491 -3.823 8.491 -8.533 c 0 -4.71 -3.866 -8.533 -8.576 -8.533 s -8.533 3.823 -8.533 8.533 C 38.4 380.177 42.223 384 46.933 384 z" stroke-linecap="round"/>
</g>
		<g transform="matrix(1 0 0 1 -38.4005 -81.0665)" id="Layer_1">
<path style="stroke: none; stroke-width: 1; stroke-dasharray: none; stroke-linecap: butt; stroke-dashoffset: 0; stroke-linejoin: miter; stroke-miterlimit: 4; is-custom-font: none; font-file-url: none; fill: rgb(0,0,0); fill-rule: nonzero; opacity: 1;" transform=" translate(-217.5995, -174.9335)" d="M 46.933 349.867 c 4.71 0 8.533 -3.823 8.533 -8.533 V 17.067 H 243.2 v 128 c 0 4.71 3.823 8.533 8.533 8.533 h 128 v 76.8 c 0 4.71 3.823 8.533 8.533 8.533 s 8.533 -3.823 8.533 -8.533 v -85.333 c 0 -2.261 -0.896 -4.437 -2.5 -6.033 L 257.766 2.5 c -1.596 -1.604 -3.772 -2.5 -6.033 -2.5 h -204.8 C 42.223 0 38.4 3.823 38.4 8.533 v 332.8 C 38.4 346.044 42.223 349.867 46.933 349.867 z M 260.267 29.133 l 107.401 107.401 H 260.267 V 29.133 z" stroke-linecap="round"/>
</g>
		<g transform="matrix(1 0 0 1 57.984 -173.184)" id="Layer_1">
<polygon style="stroke: none; stroke-width: 1; stroke-dasharray: none; stroke-linecap: butt; stroke-dashoffset: 0; stroke-linejoin: miter; stroke-miterlimit: 4; is-custom-font: none; font-file-url: none; fill: rgb(126,147,158); fill-rule: nonzero; opacity: 1;" points="53.717,53.717 -53.717,53.717 -53.717,-53.717 "/>
</g>
		<g transform="matrix(1 0 0 1 -63.9995 -8.533)" id="Layer_1">
<path style="stroke: none; stroke-width: 1; stroke-dasharray: none; stroke-linecap: butt; stroke-dashoffset: 0; stroke-linejoin: miter; stroke-miterlimit: 4; is-custom-font: none; font-file-url: none; fill: rgb(175,175,175); fill-rule: nonzero; opacity: 1;" transform=" translate(-192.0005, -247.467)" d="M 337.067 153.6 v 69.717 c -59.136 4.181 -106.411 52.053 -109.653 111.531 c -6.315 15.104 -9.813 31.744 -9.813 49.152 c 0 1.707 0 3.413 0.085 5.12 c 1.365 34.987 16.981 66.475 41.045 88.747 h -24.064 c 0 -4.693 -3.84 -8.533 -8.533 -8.533 H 55.467 V 409.6 c 0 -4.693 -3.84 -8.533 -8.533 -8.533 V 384 h 0.085 c 4.693 0 8.448 -3.84 8.448 -8.533 s -3.84 -8.533 -8.533 -8.533 v -17.067 c 4.693 0 8.533 -3.84 8.533 -8.533 V 17.067 H 243.2 v 128 c 0 4.693 3.84 8.533 8.533 8.533 H 337.067 z" stroke-linecap="round"/>
</g>
		<g transform="matrix(1 0 0 1 51.84 -11.776)" id="Layer_1">
<path style="stroke: none; stroke-width: 1; stroke-dasharray: none; stroke-linecap: butt; stroke-dashoffset: 0; stroke-linejoin: miter; stroke-miterlimit: 4; is-custom-font: none; font-file-url: none; fill: rgb(126,147,158); fill-rule: nonzero; opacity: 1;" transform=" translate(-307.84, -244.224)" d="M 379.733 230.4 v -2.304 v -18.944 V 153.6 h -42.667 v 51.456 v 18.261 c -59.136 4.181 -106.411 52.053 -109.653 111.531 C 246.784 288.597 292.437 256 345.6 256 c 15.019 0 29.355 2.56 42.667 7.339 v -24.405 C 383.573 238.933 379.733 235.093 379.733 230.4 z" stroke-linecap="round"/>
</g>
</g>
</g>
</svg>